<?xml version="1.0" ?><!DOCTYPE svg  PUBLIC '-//W3C//DTD SVG 1.1//EN'  'http://www.w3.org/Graphics/SVG/1.1/DTD/svg11.dtd'><!-- Uploaded to: SVG Repo, www.svgrepo.com, Generator: SVG Repo Mixer Tools -->
<svg fill="gray" width="800px" height="800px" viewBox="0 0 32 32" style="fill-rule:evenodd;clip-rule:evenodd;stroke-linejoin:round;stroke-miterlimit:2;" version="1.1" xml:space="preserve" xmlns="http://www.w3.org/2000/svg" xmlns:serif="http://www.serif.com/" xmlns:xlink="http://www.w3.org/1999/xlink"><path d="M21.045,20.004c0,0.552 0.448,1 1,1l5,-0c0.552,-0 1,-0.448 1,-1l0,-15c0,-0.552 -0.448,-1 -1,-1l-5,-0c-0.552,-0 -1,0.448 -1,1l0,15Z"/><path d="M15.117,26.067l3.84,-7.613c0.071,-0.139 0.107,-0.294 0.107,-0.45l0,-11c0,-0.266 -0.106,-0.521 -0.294,-0.709l-2.01,-2c-0.187,-0.186 -0.441,-0.291 -0.705,-0.291l-6.351,-0c-1.43,-0 -2.661,1.009 -2.942,2.411l-2.204,11.01c-0.176,0.882 0.052,1.796 0.623,2.492c0.57,0.695 1.422,1.098 2.322,1.097l2.961,-0.003l-1.021,3.105c-0.504,1.533 0.331,3.185 1.865,3.689c0.048,0.016 0.097,0.032 0.146,0.048c1.507,0.496 3.129,-0.302 3.663,-1.786Zm-0,0l0.001,-0.003l-0.002,0.004l0.001,-0.001Z"/></svg>